#N canvas 100 100 1600 900;
#X obj 800 450 pdj uk.ac.shef.basic.PDTest;
#X obj 200 0 hsl 128 15 0 1 0 0 empty empty empty -2 -8 0 10 -262144 -1 -1 18.9 1;
#X obj 200 10 list append right_hip_pitch 702;
#X connect 1 0 2 0;
#X connect 2 0 0 0;
#X obj 400 0 hsl 128 15 0 1 0 0 empty empty empty -2 -8 0 10 -262144 -1 -1 92.6 1;
#X obj 400 10 list append brows_pitch 300;
#X connect 3 0 4 0;
#X connect 4 0 0 0;
#X obj 600 0 hsl 128 15 0 1 0 0 empty empty empty -2 -8 0 10 -262144 -1 -1 16.4 1;
#X obj 600 10 list append right_hip_yaw 701;
#X connect 5 0 6 0;
#X connect 6 0 0 0;
#X obj 800 0 hsl 128 15 0 1 0 0 empty empty empty -2 -8 0 10 -262144 -1 -1 14 1;
#X obj 800 10 list append left_wrist 420;
#X connect 7 0 8 0;
#X connect 8 0 0 0;
#X obj 0 200 hsl 128 15 0 1 0 0 empty empty empty -2 -8 0 10 -262144 -1 -1 18.8 1;
#X obj 0 210 list append right_hip_roll 700;
#X connect 9 0 10 0;
#X connect 10 0 0 0;
#X obj 200 200 hsl 128 15 0 1 0 0 empty empty empty -2 -8 0 10 -262144 -1 -1 89.5 1;
#X obj 200 210 list append eyelids 301;
#X connect 11 0 12 0;
#X connect 12 0 0 0;
#X obj 400 200 hsl 128 15 0 1 0 0 empty empty empty -2 -8 0 10 -262144 -1 -1 94.6 1;
#X obj 400 210 list append right_knee_pitch 710;
#X connect 13 0 14 0;
#X connect 14 0 0 0;
#X obj 600 200 hsl 128 15 0 1 0 0 empty empty empty -2 -8 0 10 -262144 -1 -1 41.8 1;
#X obj 600 210 list append left_elbow_yaw 410;
#X connect 15 0 16 0;
#X connect 16 0 0 0;
#X obj 800 200 hsl 128 15 0 1 0 0 empty empty empty -2 -8 0 10 -262144 -1 -1 11.9 1;
#X obj 800 210 list append left_elbow_pitch 411;
#X connect 17 0 18 0;
#X connect 18 0 0 0;
#X obj 0 400 hsl 128 15 0 1 0 0 empty empty empty -2 -8 0 10 -262144 -1 -1 55 1;
#X obj 0 410 list append eye_right 312;
#X connect 19 0 20 0;
#X connect 20 0 0 0;
#X obj 200 400 hsl 128 15 0 1 0 0 empty empty empty -2 -8 0 10 -262144 -1 -1 39.4 1;
#X obj 200 410 list append eye_left 311;
#X connect 21 0 22 0;
#X connect 22 0 0 0;
#X obj 400 400 hsl 128 15 0 1 0 0 empty empty empty -2 -8 0 10 -262144 -1 -1 73.8 1;
#X obj 400 410 list append eyes_pitch 310;
#X connect 23 0 24 0;
#X connect 24 0 0 0;
#X obj 600 400 hsl 128 15 0 1 0 0 empty empty empty -2 -8 0 10 -262144 -1 -1 32.8 1;
#X obj 600 410 list append right_ankle_pitch 720;
#X connect 25 0 26 0;
#X connect 26 0 0 0;
#X obj 800 400 hsl 128 15 0 1 0 0 empty empty empty -2 -8 0 10 -262144 -1 -1 38.1 1;
#X obj 800 410 list append waist 100;
#X connect 27 0 28 0;
#X connect 28 0 0 0;
#X obj 0 600 hsl 128 15 0 1 0 0 empty empty empty -2 -8 0 10 -262144 -1 -1 3.9 1;
#X obj 0 610 list append right_shoulder_roll 501;
#X connect 29 0 30 0;
#X connect 30 0 0 0;
#X obj 200 600 hsl 128 15 0 1 0 0 empty empty empty -2 -8 0 10 -262144 -1 -1 49.5 1;
#X obj 200 610 list append right_ankle_roll 721;
#X connect 31 0 32 0;
#X connect 32 0 0 0;
#X obj 400 600 hsl 128 15 0 1 0 0 empty empty empty -2 -8 0 10 -262144 -1 -1 45.3 1;
#X obj 400 610 list append left_grasp 430;
#X connect 33 0 34 0;
#X connect 34 0 0 0;
#X obj 600 600 hsl 128 15 0 1 0 0 empty empty empty -2 -8 0 10 -262144 -1 -1 17.4 1;
#X obj 600 610 list append right_shoulder_pitch 500;
#X connect 35 0 36 0;
#X connect 36 0 0 0;
#X obj 800 600 hsl 128 15 0 1 0 0 empty empty empty -2 -8 0 10 -262144 -1 -1 12.2 1;
#X obj 800 610 list append right_elbow_pitch 511;
#X connect 37 0 38 0;
#X connect 38 0 0 0;
#X obj 0 800 hsl 128 15 0 1 0 0 empty empty empty -2 -8 0 10 -262144 -1 -1 19.2 1;
#X obj 0 810 list append left_hip_pitch 602;
#X connect 39 0 40 0;
#X connect 40 0 0 0;
#X obj 200 800 hsl 128 15 0 1 0 0 empty empty empty -2 -8 0 10 -262144 -1 -1 26.7 1;
#X obj 200 810 list append left_hip_yaw 601;
#X connect 41 0 42 0;
#X connect 42 0 0 0;
#X obj 400 800 hsl 128 15 0 1 0 0 empty empty empty -2 -8 0 10 -262144 -1 -1 41.3 1;
#X obj 400 810 list append right_elbow_yaw 510;
#X connect 43 0 44 0;
#X connect 44 0 0 0;
#X obj 600 800 hsl 128 15 0 1 0 0 empty empty empty -2 -8 0 10 -262144 -1 -1 50.7 1;
#X obj 600 810 list append neck_roll 201;
#X connect 45 0 46 0;
#X connect 46 0 0 0;
#X obj 800 800 hsl 128 15 0 1 0 0 empty empty empty -2 -8 0 10 -262144 -1 -1 48.9 1;
#X obj 800 810 list append right_wrist 520;
#X connect 47 0 48 0;
#X connect 48 0 0 0;
#X obj 0 1000 hsl 128 15 0 1 0 0 empty empty empty -2 -8 0 10 -262144 -1 -1 59.7 1;
#X obj 0 1010 list append neck_pitch 202;
#X connect 49 0 50 0;
#X connect 50 0 0 0;
#X obj 200 1000 hsl 128 15 0 1 0 0 empty empty empty -2 -8 0 10 -262144 -1 -1 90.8 1;
#X obj 200 1010 list append left_knee_pitch 610;
#X connect 51 0 52 0;
#X connect 52 0 0 0;
#X obj 400 1000 hsl 128 15 0 1 0 0 empty empty empty -2 -8 0 10 -262144 -1 -1 33 1;
#X obj 400 1010 list append left_ankle_pitch 620;
#X connect 53 0 54 0;
#X connect 54 0 0 0;
#X obj 600 1000 hsl 128 15 0 1 0 0 empty empty empty -2 -8 0 10 -262144 -1 -1 50 1;
#X obj 600 1010 list append neck_yaw 200;
#X connect 55 0 56 0;
#X connect 56 0 0 0;
#X obj 800 1000 hsl 128 15 0 1 0 0 empty empty empty -2 -8 0 10 -262144 -1 -1 50.9 1;
#X obj 800 1010 list append left_ankle_roll 621;
#X connect 57 0 58 0;
#X connect 58 0 0 0;
#X obj 0 1200 hsl 128 15 0 1 0 0 empty empty empty -2 -8 0 10 -262144 -1 -1 2.1 1;
#X obj 0 1210 list append left_shoulder_roll 401;
#X connect 59 0 60 0;
#X connect 60 0 0 0;
#X obj 200 1200 hsl 128 15 0 1 0 0 empty empty empty -2 -8 0 10 -262144 -1 -1 58 1;
#X obj 200 1210 list append smile_left 320;
#X connect 61 0 62 0;
#X connect 62 0 0 0;
#X obj 400 1200 hsl 128 15 0 1 0 0 empty empty empty -2 -8 0 10 -262144 -1 -1 60.6 1;
#X obj 400 1210 list append smile_right 321;
#X connect 63 0 64 0;
#X connect 64 0 0 0;
#X obj 600 1200 hsl 128 15 0 1 0 0 empty empty empty -2 -8 0 10 -262144 -1 -1 11.4 1;
#X obj 600 1210 list append jaw 322;
#X connect 65 0 66 0;
#X connect 66 0 0 0;
#X obj 800 1200 hsl 128 15 0 1 0 0 empty empty empty -2 -8 0 10 -262144 -1 -1 17.7 1;
#X obj 800 1210 list append left_shoulder_pitch 400;
#X connect 67 0 68 0;
#X connect 68 0 0 0;
#X obj 0 1400 hsl 128 15 0 1 0 0 empty empty empty -2 -8 0 10 -262144 -1 -1 18.6 1;
#X obj 0 1410 list append left_hip_roll 600;
#X connect 69 0 70 0;
#X connect 70 0 0 0;
#X obj 200 1400 hsl 128 15 0 1 0 0 empty empty empty -2 -8 0 10 -262144 -1 -1 11.3 1;
#X obj 200 1410 list append right_grasp 530;
#X connect 71 0 72 0;
#X connect 72 0 0 0;
